<svg width="395" height="50" viewBox="0 0 395 50" fill="none" xmlns="http://www.w3.org/2000/svg">
<path d="M29.032 5.736L19.768 39H9.976L0.376 5.736H8.68L15.016 32.856L20.968 5.736H29.032ZM49.6851 31.608C49.6851 32.568 49.8131 33.272 50.0691 33.72C50.3571 34.168 50.8051 34.504 51.4131 34.728L49.8291 39.672C48.2611 39.544 46.9811 39.208 45.9891 38.664C44.9971 38.088 44.2291 37.192 43.6851 35.976C42.0211 38.536 39.4611 39.816 36.0051 39.816C33.4771 39.816 31.4611 39.08 29.9571 37.608C28.4531 36.136 27.7011 34.216 27.7011 31.848C27.7011 29.064 28.7251 26.936 30.7731 25.464C32.8211 23.992 35.7811 23.256 39.6531 23.256H42.2451V22.152C42.2451 20.648 41.9251 19.624 41.2851 19.08C40.6451 18.504 39.5251 18.216 37.9251 18.216C37.0931 18.216 36.0851 18.344 34.9011 18.6C33.7171 18.824 32.5011 19.144 31.2531 19.56L29.5251 14.568C31.1251 13.96 32.7571 13.496 34.4211 13.176C36.1171 12.856 37.6851 12.696 39.1251 12.696C42.7731 12.696 45.4451 13.448 47.1411 14.952C48.8371 16.456 49.6851 18.712 49.6851 21.72V31.608ZM38.2131 34.392C39.9411 34.392 41.2851 33.576 42.2451 31.944V27.432H40.3731C38.6451 27.432 37.3491 27.736 36.4851 28.344C35.6531 28.952 35.2371 29.896 35.2371 31.176C35.2371 32.2 35.4931 33 36.0051 33.576C36.5491 34.12 37.2851 34.392 38.2131 34.392ZM62.0253 39.816C59.8173 39.816 58.0893 39.192 56.8413 37.944C55.6253 36.664 55.0173 34.856 55.0173 32.52V3.384L62.6013 2.568V32.232C62.6013 33.288 63.0333 33.816 63.8973 33.816C64.3453 33.816 64.7613 33.736 65.1453 33.576L66.6333 38.952C65.2573 39.528 63.7213 39.816 62.0253 39.816ZM92.1209 3.384V39H85.4009L85.0169 36.024C83.2249 38.552 80.8089 39.816 77.7689 39.816C74.6009 39.816 72.1849 38.6 70.5209 36.168C68.8889 33.736 68.0729 30.408 68.0729 26.184C68.0729 23.592 68.5049 21.272 69.3689 19.224C70.2329 17.176 71.4489 15.576 73.0169 14.424C74.6169 13.272 76.4409 12.696 78.4889 12.696C80.9209 12.696 82.9369 13.496 84.5369 15.096V2.568L92.1209 3.384ZM80.1209 34.248C81.8809 34.248 83.3529 33.288 84.5369 31.368V20.376C83.9289 19.64 83.3049 19.096 82.6649 18.744C82.0569 18.392 81.3529 18.216 80.5529 18.216C79.1449 18.216 78.0249 18.872 77.1929 20.184C76.3609 21.496 75.9449 23.512 75.9449 26.232C75.9449 29.208 76.2969 31.288 77.0009 32.472C77.7369 33.656 78.7769 34.248 80.1209 34.248ZM105.638 13.512V39H98.0541V13.512H105.638ZM101.798 0.0719976C103.11 0.0719976 104.182 0.487998 105.014 1.32C105.878 2.12 106.31 3.144 106.31 4.392C106.31 5.64 105.878 6.68 105.014 7.512C104.182 8.312 103.11 8.712 101.798 8.712C100.486 8.712 99.4141 8.312 98.5821 7.512C97.7501 6.68 97.3341 5.64 97.3341 4.392C97.3341 3.144 97.7501 2.12 98.5821 1.32C99.4141 0.487998 100.486 0.0719976 101.798 0.0719976ZM125.425 12.792C126.353 12.792 127.201 12.904 127.969 13.128L126.769 20.472C125.809 20.248 125.041 20.136 124.465 20.136C122.961 20.136 121.809 20.664 121.009 21.72C120.241 22.744 119.633 24.296 119.185 26.376V39H111.601V13.512H118.225L118.849 18.456C119.425 16.696 120.289 15.32 121.441 14.328C122.625 13.304 123.953 12.792 125.425 12.792ZM156.801 4.92C161.089 4.92 164.785 6.28 167.889 9L163.905 13.176C162.721 12.28 161.617 11.64 160.593 11.256C159.601 10.84 158.449 10.632 157.137 10.632C154.673 10.632 152.705 11.608 151.233 13.56C149.761 15.48 149.025 18.408 149.025 22.344C149.025 26.6 149.585 29.624 150.705 31.416C151.825 33.176 153.569 34.056 155.937 34.056C157.601 34.056 159.105 33.688 160.449 32.952V25.416H156.129L155.361 19.848H168.081V36.312C166.353 37.432 164.449 38.296 162.369 38.904C160.289 39.512 158.209 39.816 156.129 39.816C151.073 39.816 147.265 38.344 144.705 35.4C142.145 32.424 140.865 28.072 140.865 22.344C140.865 18.696 141.553 15.56 142.929 12.936C144.337 10.312 146.241 8.328 148.641 6.984C151.073 5.608 153.793 4.92 156.801 4.92ZM184.235 12.696C188.139 12.696 191.195 13.896 193.403 16.296C195.611 18.664 196.715 21.992 196.715 26.28C196.715 29 196.203 31.384 195.179 33.432C194.187 35.448 192.747 37.016 190.859 38.136C189.003 39.256 186.795 39.816 184.235 39.816C180.363 39.816 177.307 38.632 175.067 36.264C172.859 33.864 171.755 30.52 171.755 26.232C171.755 23.512 172.251 21.144 173.243 19.128C174.267 17.08 175.707 15.496 177.563 14.376C179.451 13.256 181.675 12.696 184.235 12.696ZM184.235 18.264C182.699 18.264 181.547 18.92 180.779 20.232C180.011 21.512 179.627 23.512 179.627 26.232C179.627 29.016 179.995 31.048 180.731 32.328C181.499 33.608 182.667 34.248 184.235 34.248C185.771 34.248 186.923 33.608 187.691 32.328C188.459 31.016 188.843 29 188.843 26.28C188.843 23.496 188.459 21.464 187.691 20.184C186.955 18.904 185.803 18.264 184.235 18.264ZM224.074 3.384V39H217.354L216.97 36.024C215.178 38.552 212.762 39.816 209.722 39.816C206.554 39.816 204.138 38.6 202.474 36.168C200.842 33.736 200.026 30.408 200.026 26.184C200.026 23.592 200.458 21.272 201.322 19.224C202.186 17.176 203.402 15.576 204.97 14.424C206.57 13.272 208.394 12.696 210.442 12.696C212.874 12.696 214.89 13.496 216.49 15.096V2.568L224.074 3.384ZM212.074 34.248C213.834 34.248 215.306 33.288 216.49 31.368V20.376C215.882 19.64 215.258 19.096 214.618 18.744C214.01 18.392 213.306 18.216 212.506 18.216C211.098 18.216 209.978 18.872 209.146 20.184C208.314 21.496 207.898 23.512 207.898 26.232C207.898 29.208 208.25 31.288 208.954 32.472C209.69 33.656 210.73 34.248 212.074 34.248ZM241.047 12.696C244.951 12.696 248.007 13.896 250.215 16.296C252.423 18.664 253.527 21.992 253.527 26.28C253.527 29 253.015 31.384 251.991 33.432C250.999 35.448 249.559 37.016 247.671 38.136C245.815 39.256 243.607 39.816 241.047 39.816C237.175 39.816 234.119 38.632 231.879 36.264C229.671 33.864 228.567 30.52 228.567 26.232C228.567 23.512 229.063 21.144 230.055 19.128C231.079 17.08 232.519 15.496 234.375 14.376C236.263 13.256 238.487 12.696 241.047 12.696ZM241.047 18.264C239.511 18.264 238.359 18.92 237.591 20.232C236.823 21.512 236.439 23.512 236.439 26.232C236.439 29.016 236.807 31.048 237.543 32.328C238.311 33.608 239.479 34.248 241.047 34.248C242.583 34.248 243.735 33.608 244.503 32.328C245.271 31.016 245.655 29 245.655 26.28C245.655 23.496 245.271 21.464 244.503 20.184C243.767 18.904 242.615 18.264 241.047 18.264ZM271.728 39.048C270.704 42.344 269.024 44.872 266.688 46.632C264.384 48.424 261.28 49.432 257.376 49.656L256.56 44.328C258.992 44.008 260.784 43.464 261.936 42.696C263.12 41.928 264.064 40.696 264.768 39H262.176L254.399 13.512H262.464L267.023 34.152L272.016 13.512H279.84L271.728 39.048ZM294.042 39V5.736H313.866L313.05 11.352H301.914V20.184H311.61V25.8H301.914V39H294.042ZM323.466 13.512V39H315.882V13.512H323.466ZM319.626 0.0719976C320.938 0.0719976 322.01 0.487998 322.842 1.32C323.706 2.12 324.138 3.144 324.138 4.392C324.138 5.64 323.706 6.68 322.842 7.512C322.01 8.312 320.938 8.712 319.626 8.712C318.314 8.712 317.242 8.312 316.41 7.512C315.578 6.68 315.162 5.64 315.162 4.392C315.162 3.144 315.578 2.12 316.41 1.32C317.242 0.487998 318.314 0.0719976 319.626 0.0719976ZM336.197 39.816C333.989 39.816 332.261 39.192 331.013 37.944C329.797 36.664 329.189 34.856 329.189 32.52V3.384L336.773 2.568V32.232C336.773 33.288 337.205 33.816 338.069 33.816C338.517 33.816 338.933 33.736 339.317 33.576L340.805 38.952C339.429 39.528 337.893 39.816 336.197 39.816ZM358.607 12.696C360.815 12.696 362.543 13.368 363.791 14.712C365.039 16.056 365.663 17.944 365.663 20.376V39H358.079V21.672C358.079 20.392 357.871 19.512 357.455 19.032C357.039 18.52 356.447 18.264 355.679 18.264C354.143 18.264 352.671 19.352 351.263 21.528V39H343.679V3.384L351.263 2.616V16.248C352.319 15.064 353.439 14.184 354.623 13.608C355.807 13 357.135 12.696 358.607 12.696ZM382.422 12.696C386.326 12.696 389.382 13.896 391.59 16.296C393.798 18.664 394.902 21.992 394.902 26.28C394.902 29 394.39 31.384 393.366 33.432C392.374 35.448 390.934 37.016 389.046 38.136C387.19 39.256 384.982 39.816 382.422 39.816C378.55 39.816 375.494 38.632 373.254 36.264C371.046 33.864 369.942 30.52 369.942 26.232C369.942 23.512 370.438 21.144 371.43 19.128C372.454 17.08 373.894 15.496 375.75 14.376C377.638 13.256 379.862 12.696 382.422 12.696ZM382.422 18.264C380.886 18.264 379.734 18.92 378.966 20.232C378.198 21.512 377.814 23.512 377.814 26.232C377.814 29.016 378.182 31.048 378.918 32.328C379.686 33.608 380.854 34.248 382.422 34.248C383.958 34.248 385.11 33.608 385.878 32.328C386.646 31.016 387.03 29 387.03 26.28C387.03 23.496 386.646 21.464 385.878 20.184C385.142 18.904 383.99 18.264 382.422 18.264Z" fill="#141414"/>
</svg>
